<?xml version="1.0" encoding="utf-8"?>
<!-- Generator: Adobe Illustrator 26.0.3, SVG Export Plug-In . SVG Version: 6.00 Build 0)  -->
<svg version="1.1" xmlns="http://www.w3.org/2000/svg" xmlns:xlink="http://www.w3.org/1999/xlink" x="0px" y="0px"
	 viewBox="0 0 500 172.6" style="enable-background:new 0 0 500 172.6;" xml:space="preserve">
<style type="text/css">
	.st0{display:none;}
	.st1{display:inline;}
	.st2{fill-rule:evenodd;clip-rule:evenodd;}
	.st3{fill:none;stroke:#000000;stroke-width:0.7472;stroke-miterlimit:10;}
	.st4{fill:#FFFFFF;}
</style>
<g id="Capa_1" class="st0">
	<g class="st1">
		<path d="M146.5,0l-25.2,35.1l1.4,4.5l21.4-19.7l-6.6,46.3L112.3,84l11.9-35.1l-9,7.6l-2.8-8.3l-48.9,66.7l22.6-9.3L0,172.4
			L115.6,30.2l-17.3,5.2C98.3,35.4,126.3,17.6,146.5,0z"/>
		<polygon points="176.4,26.4 149.1,26.4 143.4,65.1 172.8,65.1 173.6,54.8 159.3,54.8 160,49.9 174,49.9 175.2,40.1 161.4,40.1 
			161.7,35.8 175.7,35.8 		"/>
		<polygon points="180.2,25.9 179.2,35.4 187.6,35.4 184.5,65.3 199.7,65.3 201.8,35.6 210.6,35.6 215.3,25.9 		"/>
		<path d="M235.3,25.9h-14.5l-16.9,39.4h14.7l2.4-5.5h8.8l0.7,5.5H246L235.3,25.9z M223.9,49.9l2.4-6.2l1.7,6.2H223.9z"/>
		<polygon points="248.6,26.1 248.6,65.5 276.6,65.5 276.4,54.6 263.3,54.6 263.3,26.1 		"/>
		<polygon points="278.5,26.1 279.7,65.3 308.2,65.3 307.7,54.8 294.2,54.8 292.5,26.1 		"/>
		<polygon points="308.6,26.4 311.7,65.5 327.9,65.5 323.6,26.4 		"/>
		<path d="M500,172.6L383.2,27.1l18.3,4.7c-21-11.4-48.3-30.2-50.1-31.6L364.2,18l7.8,48.1l22.1,19.4l-8.8-28.1l17.1,10.8l33.8,46.4
			l-22.3-9.5L500,172.6z M380.6,44.4l-2.8-9.5l9.7,12.6L380.6,44.4z"/>
		<path d="M362.7,38.5L360.6,26c0,0-3-1.2-9.1-1.2c-6.2,0-24,1.2-23.2,20.8c0.7,7.8,6.9,21.3,29.1,20.7c0,0,6.9-0.3,9.5-1.5
			l-2.5-14.2c-1.4,2-4.5,2.5-8.4,2.7c-3.9,0.2-10.7-0.9-11.9-8.7c-0.4-4,4.1-7.7,9.4-7.7S360.9,37.4,362.7,38.5z"/>
	</g>
	<g class="st1">
		<path class="st2" d="M771.9,1.1c0.2-0.5-60.5,77.6-60.5,77.6L735.9,57c0,0,2-1.2,1.2,3.5c-0.8,4.7-19.4,97-19.4,99.8
			c0,2.8-2.4-0.4-2.4-0.4l-4.7-12.7c0,0-5.9,12.3-7.9,15c-2,2.8-4.7,3.6-4.3-0.8s3.2-69.3,3.2-69.3s-5.9,10.3-8.7,9.1
			s-8.3-7.9-8.3-7.9l-0.4-7.9l43.2,11.9L656.3,34c0,0,21.8,30.9,23,32.9c1.2,2,0.8,3.1-2,2c-2.8-1.2-155.6-45.9-156-45.9
			c0,0,63.7,57.4,64.5,57.4c0,0-15.4-19.8-15.4-19.8s-1.2-4.7,5.2-2.4c6.3,2.4,95.8,23.7,95.8,23.7l0.8,4.7c0,0-12.7,2-10.7,2.4
			c2,0.4,13.1,8.7,13.1,8.7l0.8,2.8l-71.2-3.9l3.6-22.2l-55.8,68.1c0,0,26.1-19.4,29.7-21.8c3.6-2.4,4.3,3.6,3.2,7.1
			c-1.2,3.6-39.2,148.8-39.2,148.8l61-71.6c0,0,3.6-0.8,4.7,1.2c1.2,2,48.7,45.1,48.7,45.1s-21.4-29.7-23-33.6c-1.6-4,0.8-2.8,4-2
			c3.2,0.8,149.6,41.6,149.6,41.6l-69.7-59c0,0,12.7,19.8,14.2,22.2s0.8,3.9-3.6,2.8c-4.4-1.2-88.7-20.6-88.7-20.6s-2.8-2-1.6-4.8
			c1.2-2.8,9.1-2.4,9.1-2.4l-9.1-7.9c0,0-3.6-4.4,0-4.4c3.6,0-0.2,0.2,66.9,5.2c-8.3-10-9.9-5.2-8.3-10.3
			c6.7-15.8,10.7-21.4,14.7-7.9c-2,11.9-3.6,18.6-3.6,18.6l-2.8,19c0,0,47.5-56.2,55.8-66.9c1.2-1.6-29.7,23.8-29.7,23.8
			s-7.7,5.9-4.3-4.8C733.5,148.4,771.6,2,771.9,1.1L771.9,1.1z M603.3,96.5l12.7,9.9l-11.1,15.8l-5.5-7.9L603.3,96.5L603.3,96.5z
			 M688.4,107.6l4.3,62.9l-64.1,5.9l-4.3-64.9L688.4,107.6L688.4,107.6z M616,119.9l-3.2,74l-21.4-5.5l15.8,15
			c0,0-22.6,20.2-26.1,23.3c-3.6,3.2-5.2-0.4-4.4-3.2c0.8-2.8,21-102.1,21-102.1l6.3,16.6L616,119.9L616,119.9z M623.9,183.6
			c4.7,4.7,10.9,6.3,10.3,8.7c-0.8,3.2-1.4,4.3-2.4,6.7c-4.4-1-15.4-3.6-18.6-4.8C614.8,192.7,621.1,186.4,623.9,183.6L623.9,183.6z
			"/>
		<path class="st3" d="M771.9,1.1c0.2-0.5-60.5,77.6-60.5,77.6L735.9,57c0,0,2-1.2,1.2,3.5c-0.8,4.7-19.4,97-19.4,99.8
			c0,2.8-2.4-0.4-2.4-0.4l-4.7-12.7c0,0-5.9,12.3-7.9,15c-2,2.8-4.7,3.6-4.3-0.8s3.2-69.3,3.2-69.3s-5.9,10.3-8.7,9.1
			s-8.3-7.9-8.3-7.9l-0.4-7.9l43.2,11.9L656.3,34c0,0,21.8,30.9,23,32.9c1.2,2,0.8,3.1-2,2c-2.8-1.2-155.6-45.9-156-45.9
			c0,0,63.7,57.4,64.5,57.4c0,0-15.4-19.8-15.4-19.8s-1.2-4.7,5.2-2.4c6.3,2.4,95.8,23.7,95.8,23.7l0.8,4.7c0,0-12.7,2-10.7,2.4
			c2,0.4,13.1,8.7,13.1,8.7l0.8,2.8l-71.2-3.9l3.6-22.2l-55.8,68.1c0,0,26.1-19.4,29.7-21.8c3.6-2.4,4.3,3.6,3.2,7.1
			c-1.2,3.6-39.2,148.8-39.2,148.8l61-71.6c0,0,3.6-0.8,4.7,1.2c1.2,2,48.7,45.1,48.7,45.1s-21.4-29.7-23-33.6c-1.6-4,0.8-2.8,4-2
			c3.2,0.8,149.6,41.6,149.6,41.6l-69.7-59c0,0,12.7,19.8,14.2,22.2s0.8,3.9-3.6,2.8c-4.4-1.2-88.7-20.6-88.7-20.6s-2.8-2-1.6-4.8
			c1.2-2.8,9.1-2.4,9.1-2.4l-9.1-7.9c0,0-3.6-4.4,0-4.4c3.6,0-0.2,0.2,66.9,5.2c-8.3-10-9.9-5.2-8.3-10.3
			c6.7-15.8,10.7-21.4,14.7-7.9c-2,11.9-3.6,18.6-3.6,18.6l-2.8,19c0,0,47.5-56.2,55.8-66.9c1.2-1.6-29.7,23.8-29.7,23.8
			s-7.7,5.9-4.3-4.8C733.5,148.4,771.6,2,771.9,1.1L771.9,1.1z M603.3,96.5l12.7,9.9l-11.1,15.8l-5.5-7.9L603.3,96.5L603.3,96.5z
			 M688.4,107.6l4.3,62.9l-64.1,5.9l-4.3-64.9L688.4,107.6L688.4,107.6z M616,119.9l-3.2,74l-21.4-5.5l15.8,15
			c0,0-22.6,20.2-26.1,23.3c-3.6,3.2-5.2-0.4-4.4-3.2c0.8-2.8,21-102.1,21-102.1l6.3,16.6L616,119.9L616,119.9z M623.9,183.6
			c4.7,4.7,10.9,6.3,10.3,8.7c-0.8,3.2-1.4,4.3-2.4,6.7c-4.4-1-15.4-3.6-18.6-4.8C614.8,192.7,621.1,186.4,623.9,183.6L623.9,183.6z
			"/>
	</g>
</g>
<g id="Capa_2">
	<g>
		<path class="st4" d="M146.5,0l-25.2,35.1l1.4,4.5l21.4-19.7l-6.6,46.3L112.3,84l11.9-35.1l-9,7.6l-2.8-8.3l-48.9,66.7l22.6-9.3
			L0,172.4L115.6,30.2l-17.3,5.2C98.3,35.4,126.3,17.6,146.5,0z"/>
		<polygon class="st4" points="176.4,26.4 149.1,26.4 143.4,65.1 172.8,65.1 173.6,54.8 159.3,54.8 160,49.9 174,49.9 175.2,40.1 
			161.4,40.1 161.7,35.8 175.7,35.8 		"/>
		<polygon class="st4" points="180.2,25.9 179.2,35.4 187.6,35.4 184.5,65.3 199.7,65.3 201.8,35.6 210.6,35.6 215.3,25.9 		"/>
		<path class="st4" d="M235.3,25.9h-14.5l-16.9,39.4h14.7l2.4-5.5h8.8l0.7,5.5H246L235.3,25.9z M223.9,49.9l2.4-6.2l1.7,6.2H223.9z"
			/>
		<polygon class="st4" points="248.6,26.1 248.6,65.5 276.6,65.5 276.4,54.6 263.3,54.6 263.3,26.1 		"/>
		<polygon class="st4" points="278.5,26.1 279.7,65.3 308.2,65.3 307.7,54.8 294.2,54.8 292.5,26.1 		"/>
		<polygon class="st4" points="308.6,26.4 311.7,65.5 327.9,65.5 323.6,26.4 		"/>
		<path class="st4" d="M500,172.6L383.2,27.1l18.3,4.7c-21-11.4-48.3-30.2-50.1-31.6L364.2,18l7.8,48.1l22.1,19.4l-8.8-28.1
			l17.1,10.8l33.8,46.4l-22.3-9.5L500,172.6z M380.6,44.4l-2.8-9.5l9.7,12.6L380.6,44.4z"/>
		<path class="st4" d="M362.7,38.5L360.6,26c0,0-3-1.2-9.1-1.2c-6.2,0-24,1.2-23.2,20.8c0.7,7.8,6.9,21.3,29.1,20.7
			c0,0,6.9-0.3,9.5-1.5l-2.5-14.2c-1.4,2-4.5,2.5-8.4,2.7c-3.9,0.2-10.7-0.9-11.9-8.7c-0.4-4,4.1-7.7,9.4-7.7S360.9,37.4,362.7,38.5
			z"/>
	</g>
</g>
</svg>
