<?xml version="1.0" encoding="utf-8"?>
<!-- Generator: Adobe Illustrator 26.0.3, SVG Export Plug-In . SVG Version: 6.00 Build 0)  -->
<svg version="1.1" id="Capa_1" xmlns="http://www.w3.org/2000/svg" xmlns:xlink="http://www.w3.org/1999/xlink" x="0px" y="0px"
	 viewBox="0 0 500 172.6" style="enable-background:new 0 0 500 172.6;" xml:space="preserve">
<g>
	<path d="M146.5,0l-25.2,35.1l1.4,4.5l21.4-19.7l-6.6,46.3L112.3,84l11.9-35.1l-9,7.6l-2.8-8.3l-48.9,66.7l22.6-9.3L0,172.4
		L115.6,30.2l-17.3,5.2C98.3,35.4,126.3,17.6,146.5,0z"/>
	<polygon points="176.4,26.4 149.1,26.4 143.4,65.1 172.8,65.1 173.6,54.8 159.3,54.8 160,49.9 174,49.9 175.2,40.1 161.4,40.1 
		161.7,35.8 175.7,35.8 	"/>
	<polygon points="180.2,25.9 179.2,35.4 187.6,35.4 184.5,65.3 199.7,65.3 201.8,35.6 210.6,35.6 215.3,25.9 	"/>
	<path d="M235.3,25.9h-14.5l-16.9,39.4h14.7l2.4-5.5h8.8l0.7,5.5H246L235.3,25.9z M223.9,49.9l2.4-6.2l1.7,6.2H223.9z"/>
	<polygon points="248.6,26.1 248.6,65.5 276.6,65.5 276.4,54.6 263.3,54.6 263.3,26.1 	"/>
	<polygon points="278.5,26.1 279.7,65.3 308.2,65.3 307.7,54.8 294.2,54.8 292.5,26.1 	"/>
	<polygon points="308.6,26.4 311.7,65.5 327.9,65.5 323.6,26.4 	"/>
	<path d="M500,172.6L383.2,27.1l18.3,4.7c-21-11.4-48.3-30.2-50.1-31.6L364.2,18l7.8,48.1l22.1,19.4l-8.8-28.1l17.1,10.8l33.8,46.4
		l-22.3-9.5L500,172.6z M380.6,44.4l-2.8-9.5l9.7,12.6L380.6,44.4z"/>
	<path d="M362.7,38.5L360.6,26c0,0-3-1.2-9.1-1.2c-6.2,0-24,1.2-23.2,20.8c0.7,7.8,6.9,21.3,29.1,20.7c0,0,6.9-0.3,9.5-1.5
		l-2.5-14.2c-1.4,2-4.5,2.5-8.4,2.7c-3.9,0.2-10.7-0.9-11.9-8.7c-0.4-4,4.1-7.7,9.4-7.7S360.9,37.4,362.7,38.5z"/>
</g>
</svg>
