<?xml version="1.0" encoding="utf-8"?>
<!-- Generator: Adobe Illustrator 26.0.3, SVG Export Plug-In . SVG Version: 6.00 Build 0)  -->
<svg version="1.1" id="Capa_1" xmlns="http://www.w3.org/2000/svg" xmlns:xlink="http://www.w3.org/1999/xlink" x="0px" y="0px"
	 viewBox="0 0 271.9 277.8" style="enable-background:new 0 0 271.9 277.8;" xml:space="preserve">
<style type="text/css">
	.st0{fill-rule:evenodd;clip-rule:evenodd;}
	.st1{fill:none;stroke:#000000;stroke-width:0.7472;stroke-miterlimit:10;}
</style>
<g>
	<path class="st0" d="M251.9,1.1c0.2-0.5-60.5,77.6-60.5,77.6L215.9,57c0,0,2-1.2,1.2,3.5c-0.8,4.7-19.4,97-19.4,99.8
		c0,2.8-2.4-0.4-2.4-0.4l-4.7-12.7c0,0-5.9,12.3-7.9,15c-2,2.8-4.7,3.6-4.3-0.8s3.2-69.3,3.2-69.3s-5.9,10.3-8.7,9.1
		c-2.8-1.2-8.3-7.9-8.3-7.9l-0.4-7.9l43.2,11.9L136.3,34c0,0,21.8,30.9,23,32.9c1.2,2,0.8,3.1-2,2c-2.8-1.2-155.6-45.9-156-45.9
		c0,0,63.7,57.4,64.5,57.4c0,0-15.4-19.8-15.4-19.8s-1.2-4.7,5.2-2.4c6.3,2.4,95.8,23.7,95.8,23.7l0.8,4.7c0,0-12.7,2-10.7,2.4
		c2,0.4,13.1,8.7,13.1,8.7l0.8,2.8l-71.2-3.9l3.6-22.2l-55.8,68.1c0,0,26.1-19.4,29.7-21.8c3.6-2.4,4.3,3.6,3.2,7.1
		c-1.2,3.6-39.2,148.8-39.2,148.8l61-71.6c0,0,3.6-0.8,4.7,1.2c1.2,2,48.7,45.1,48.7,45.1s-21.4-29.7-23-33.6c-1.6-4,0.8-2.8,4-2
		c3.2,0.8,149.6,41.6,149.6,41.6l-69.7-59c0,0,12.7,19.8,14.2,22.2c1.6,2.4,0.8,3.9-3.6,2.8c-4.4-1.2-88.7-20.6-88.7-20.6
		s-2.8-2-1.6-4.8c1.2-2.8,9.1-2.4,9.1-2.4l-9.1-7.9c0,0-3.6-4.4,0-4.4c3.6,0-0.2,0.2,66.9,5.2c-8.3-10-9.9-5.2-8.3-10.3
		c6.7-15.8,10.7-21.4,14.7-7.9c-2,11.9-3.6,18.6-3.6,18.6l-2.8,19c0,0,47.5-56.2,55.8-66.9c1.2-1.6-29.7,23.8-29.7,23.8
		s-7.7,5.9-4.3-4.8C213.5,148.4,251.6,2,251.9,1.1L251.9,1.1z M83.3,96.5l12.7,9.9l-11.1,15.8l-5.5-7.9L83.3,96.5L83.3,96.5z
		 M168.4,107.6l4.3,62.9l-64.1,5.9l-4.3-64.9L168.4,107.6L168.4,107.6z M96,119.9l-3.2,74l-21.4-5.5l15.8,15
		c0,0-22.6,20.2-26.1,23.3c-3.6,3.2-5.2-0.4-4.4-3.2c0.8-2.8,21-102.1,21-102.1l6.3,16.6L96,119.9L96,119.9z M103.9,183.6
		c4.7,4.7,10.9,6.3,10.3,8.7c-0.8,3.2-1.4,4.3-2.4,6.7c-4.4-1-15.4-3.6-18.6-4.8C94.8,192.7,101.1,186.4,103.9,183.6L103.9,183.6z"
		/>
	<path class="st1" d="M251.9,1.1c0.2-0.5-60.5,77.6-60.5,77.6L215.9,57c0,0,2-1.2,1.2,3.5c-0.8,4.7-19.4,97-19.4,99.8
		c0,2.8-2.4-0.4-2.4-0.4l-4.7-12.7c0,0-5.9,12.3-7.9,15c-2,2.8-4.7,3.6-4.3-0.8s3.2-69.3,3.2-69.3s-5.9,10.3-8.7,9.1
		c-2.8-1.2-8.3-7.9-8.3-7.9l-0.4-7.9l43.2,11.9L136.3,34c0,0,21.8,30.9,23,32.9c1.2,2,0.8,3.1-2,2c-2.8-1.2-155.6-45.9-156-45.9
		c0,0,63.7,57.4,64.5,57.4c0,0-15.4-19.8-15.4-19.8s-1.2-4.7,5.2-2.4c6.3,2.4,95.8,23.7,95.8,23.7l0.8,4.7c0,0-12.7,2-10.7,2.4
		c2,0.4,13.1,8.7,13.1,8.7l0.8,2.8l-71.2-3.9l3.6-22.2l-55.8,68.1c0,0,26.1-19.4,29.7-21.8c3.6-2.4,4.3,3.6,3.2,7.1
		c-1.2,3.6-39.2,148.8-39.2,148.8l61-71.6c0,0,3.6-0.8,4.7,1.2c1.2,2,48.7,45.1,48.7,45.1s-21.4-29.7-23-33.6c-1.6-4,0.8-2.8,4-2
		c3.2,0.8,149.6,41.6,149.6,41.6l-69.7-59c0,0,12.7,19.8,14.2,22.2c1.6,2.4,0.8,3.9-3.6,2.8c-4.4-1.2-88.7-20.6-88.7-20.6
		s-2.8-2-1.6-4.8c1.2-2.8,9.1-2.4,9.1-2.4l-9.1-7.9c0,0-3.6-4.4,0-4.4c3.6,0-0.2,0.2,66.9,5.2c-8.3-10-9.9-5.2-8.3-10.3
		c6.7-15.8,10.7-21.4,14.7-7.9c-2,11.9-3.6,18.6-3.6,18.6l-2.8,19c0,0,47.5-56.2,55.8-66.9c1.2-1.6-29.7,23.8-29.7,23.8
		s-7.7,5.9-4.3-4.8C213.5,148.4,251.6,2,251.9,1.1L251.9,1.1z M83.3,96.5l12.7,9.9l-11.1,15.8l-5.5-7.9L83.3,96.5L83.3,96.5z
		 M168.4,107.6l4.3,62.9l-64.1,5.9l-4.3-64.9L168.4,107.6L168.4,107.6z M96,119.9l-3.2,74l-21.4-5.5l15.8,15
		c0,0-22.6,20.2-26.1,23.3c-3.6,3.2-5.2-0.4-4.4-3.2c0.8-2.8,21-102.1,21-102.1l6.3,16.6L96,119.9L96,119.9z M103.9,183.6
		c4.7,4.7,10.9,6.3,10.3,8.7c-0.8,3.2-1.4,4.3-2.4,6.7c-4.4-1-15.4-3.6-18.6-4.8C94.8,192.7,101.1,186.4,103.9,183.6L103.9,183.6z"
		/>
</g>
</svg>
